<svg width="1790" height="1349" viewBox="0 0 1790 1349" fill="none" xmlns="http://www.w3.org/2000/svg">
<g opacity="0.1" clip-path="url(#clip0_832_26)">
<path d="M-615.709 1242.02C-619.602 1218.74 -605.416 876.997 -480.443 594.296C-368.261 340.889 -108.387 196.901 194.982 379.894C520.03 576.015 800.739 596.293 1027.25 539.802C1250.79 483.793 1399.74 313.855 1466.72 205.429C1612.06 -28.8776 1825.66 116.733 1749.83 425.272C1714.05 568.795 1620.49 608.735 1458.49 623.273C1289.15 638.469 1039.09 604.848 692.005 671.447C357.269 735.929 -19.6062 891.75 -231.777 1090.69C-457.58 1302.59 -583.13 1445.14 -615.709 1242.02Z" fill="url(#paint0_linear_832_26)"/>
</g>
<defs>
<linearGradient id="paint0_linear_832_26" x1="1640.3" y1="1062.44" x2="-562.5" y2="374.228" gradientUnits="userSpaceOnUse">
<stop stop-color="#5D50C6"/>
<stop offset="1" stop-color="#F85E9F"/>
</linearGradient>
<clipPath id="clip0_832_26">
<rect width="2506.2" height="958.638" fill="white" transform="translate(-752.232 402.637) rotate(-9.23807)"/>
</clipPath>
</defs>
</svg>
