<svg width="225" height="34" viewBox="0 0 225 34" fill="none" xmlns="http://www.w3.org/2000/svg">
<path d="M24.2899 19.8919C23.9439 20.2258 23.7841 20.7095 23.8617 21.1843L25.0324 27.7469C25.1311 28.3032 24.8952 28.8653 24.4291 29.1856C23.9724 29.5179 23.3656 29.5565 22.8689 29.2888L16.9705 26.1956C16.7654 26.0858 16.5375 26.0266 16.3042 26.0194L15.9429 26.0186C15.8175 26.037 15.6947 26.0767 15.5826 26.1378L9.66901 29.2192C9.37668 29.3652 9.0459 29.4165 8.72202 29.3638C7.93302 29.2127 7.40804 28.4595 7.53915 27.6664L8.7405 21.1091C8.82024 20.6306 8.66266 20.1436 8.31809 19.8028L3.51388 15.1254C3.11209 14.7338 2.9734 14.1469 3.15859 13.618C3.33844 13.0904 3.7953 12.7061 4.34616 12.6206L10.975 11.6741C11.4791 11.6233 11.9224 11.3176 12.1501 10.8648L15.0835 4.88464C15.1531 4.75146 15.2428 4.62899 15.351 4.52523L15.4712 4.43217C15.534 4.36298 15.6061 4.3058 15.6863 4.25932L15.8317 4.20631L16.0586 4.11348L16.6199 4.11474C17.1211 4.16786 17.5618 4.46885 17.7914 4.91737L20.7368 10.884C20.9491 11.3205 21.3631 11.624 21.8416 11.6984L28.4661 12.6746C29.0259 12.7559 29.4931 13.1436 29.6772 13.6773C29.8507 14.2124 29.6987 14.7987 29.2872 15.1831L24.2899 19.8919Z" fill="#FACD49"/>
<path d="M72.2899 19.9993C71.9439 20.3332 71.7841 20.8169 71.8617 21.2917L73.0324 27.8544C73.1311 28.4106 72.8952 28.9727 72.4291 29.293C71.9724 29.6253 71.3656 29.664 70.8689 29.3962L64.9705 26.303C64.7654 26.1932 64.5375 26.134 64.3042 26.1268L63.9429 26.126C63.8175 26.1444 63.6947 26.1841 63.5826 26.2452L57.669 29.3266C57.3767 29.4726 57.0459 29.5239 56.722 29.4712C55.933 29.3201 55.408 28.5669 55.5391 27.7739L56.7405 21.2165C56.8202 20.738 56.6627 20.251 56.3181 19.9103L51.5139 15.2328C51.1121 14.8413 50.9734 14.2543 51.1586 13.7254C51.3384 13.1978 51.7953 12.8135 52.3462 12.728L58.975 11.7815C59.4791 11.7307 59.9224 11.425 60.1501 10.9722L63.0835 4.99206C63.1531 4.85888 63.2428 4.73641 63.351 4.63266L63.4712 4.53959C63.534 4.4704 63.6061 4.41323 63.6863 4.36674L63.8317 4.31373L64.0586 4.22091L64.6199 4.22216C65.1211 4.27528 65.5618 4.57627 65.7914 5.02479L68.7368 10.9914C68.9491 11.4279 69.3631 11.7315 69.8416 11.8059L76.4661 12.782C77.0259 12.8633 77.4931 13.251 77.6772 13.7848C77.8507 14.3198 77.6987 14.9061 77.2872 15.2905L72.2899 19.9993Z" fill="#FACD49"/>
<path d="M120.29 20.1068C119.944 20.4407 119.784 20.9243 119.861 21.3991L121.032 27.9618C121.131 28.518 120.895 29.0801 120.429 29.4004C119.972 29.7327 119.365 29.7714 118.869 29.5036L112.97 26.4104C112.765 26.3006 112.537 26.2414 112.304 26.2342L111.943 26.2334C111.817 26.2518 111.694 26.2915 111.582 26.3526L105.669 29.4341C105.376 29.5801 105.046 29.6313 104.722 29.5786C103.933 29.4275 103.408 28.6743 103.539 27.8813L104.74 21.324C104.82 20.8455 104.662 20.3585 104.318 20.0177L99.5136 15.3402C99.1118 14.9487 98.9732 14.3617 99.1583 13.8328C99.3382 13.3052 99.7951 12.9209 100.346 12.8355L106.975 11.889C107.479 11.8381 107.922 11.5324 108.15 11.0796L111.083 5.09948C111.153 4.9663 111.243 4.84384 111.351 4.74008L111.471 4.64701C111.534 4.57782 111.606 4.52065 111.686 4.47416L111.831 4.42115L112.058 4.32833L112.62 4.32958C113.121 4.38271 113.562 4.68369 113.791 5.13221L116.737 11.0988C116.949 11.5353 117.363 11.8389 117.841 11.9133L124.466 12.8895C125.026 12.9707 125.493 13.3584 125.677 13.8922C125.85 14.4272 125.698 15.0135 125.287 15.3979L120.29 20.1068Z" fill="#FACD49"/>
<path d="M168.29 20.2142C167.944 20.5481 167.784 21.0317 167.861 21.5066L169.032 28.0692C169.131 28.6254 168.895 29.1876 168.429 29.5079C167.972 29.8402 167.365 29.8788 166.869 29.611L160.97 26.5178C160.765 26.408 160.537 26.3489 160.304 26.3417L159.943 26.3409C159.817 26.3592 159.694 26.399 159.582 26.46L153.669 29.5415C153.376 29.6875 153.046 29.7388 152.722 29.686C151.933 29.5349 151.408 28.7818 151.539 27.9887L152.74 21.4314C152.82 20.9529 152.662 20.4659 152.318 20.1251L147.514 15.4477C147.112 15.0561 146.973 14.4691 147.158 13.9402C147.338 13.4126 147.795 13.0283 148.346 12.9429L154.975 11.9964C155.479 11.9455 155.922 11.6398 156.15 11.187L159.083 5.2069C159.153 5.07372 159.243 4.95126 159.351 4.8475L159.471 4.75444C159.534 4.68524 159.606 4.62807 159.686 4.58158L159.831 4.52858L160.058 4.43575L160.62 4.43701C161.121 4.49013 161.562 4.79112 161.791 5.23963L164.737 11.2062C164.949 11.6427 165.363 11.9463 165.841 12.0207L172.466 12.9969C173.026 13.0781 173.493 13.4658 173.677 13.9996C173.85 14.5346 173.698 15.121 173.287 15.5054L168.29 20.2142Z" fill="#FACD49"/>
<path d="M216.289 20.3219C215.943 20.6557 215.784 21.1394 215.861 21.6142L217.032 28.1769C217.131 28.7331 216.895 29.2952 216.429 29.6155C215.972 29.9478 215.365 29.9865 214.868 29.7187L208.97 26.6255C208.765 26.5157 208.537 26.4565 208.304 26.4493L207.942 26.4485C207.817 26.4669 207.694 26.5066 207.582 26.5677L201.669 29.6491C201.376 29.7952 201.045 29.8464 200.722 29.7937C199.933 29.6426 199.408 28.8894 199.539 28.0964L200.74 21.539C200.82 21.0606 200.662 20.5735 200.318 20.2328L195.513 15.5553C195.112 15.1638 194.973 14.5768 195.158 14.0479C195.338 13.5203 195.795 13.136 196.346 13.0505L202.974 12.1041C203.479 12.0532 203.922 11.7475 204.15 11.2947L207.083 5.31457C207.153 5.18139 207.242 5.05892 207.351 4.95517L207.471 4.8621C207.534 4.79291 207.606 4.73574 207.686 4.68925L207.831 4.63624L208.058 4.54342L208.619 4.54467C209.121 4.59779 209.561 4.89878 209.791 5.3473L212.736 11.3139C212.949 11.7504 213.363 12.054 213.841 12.1284L220.466 13.1045C221.025 13.1858 221.493 13.5735 221.677 14.1073C221.85 14.6423 221.698 15.2286 221.287 15.613L216.289 20.3219Z" fill="#FACD49"/>
</svg>
