<svg width="112" height="40" viewBox="0 0 112 40" fill="none" xmlns="http://www.w3.org/2000/svg">
<g filter="url(#filter0_d_832_978)">
<path d="M58.8373 8.04048C58.8373 9.19374 57.908 10.1224 56.7548 10.1224C55.6015 10.1224 54.6729 9.19374 54.6729 8.04048C54.6729 6.88723 55.5698 5.9586 56.7548 5.9586C57.9407 5.9906 58.8373 6.91955 58.8373 8.04048ZM50.2525 12.2369V12.7495C50.2525 12.7495 49.2599 11.4676 47.1457 11.4676C43.6546 11.4676 40.9314 14.1264 40.9314 17.8099C40.9314 21.4617 43.6226 24.1522 47.1457 24.1522C49.2919 24.1522 50.2525 22.8389 50.2525 22.8389V23.3832C50.2525 23.6395 50.4451 23.8312 50.7011 23.8312H53.2953V11.787H50.7011C50.4451 11.7879 50.2525 12.0126 50.2525 12.2369ZM50.2525 19.9561C49.7725 20.661 48.8112 21.2697 47.6583 21.2697C45.6084 21.2697 44.0385 19.9884 44.0385 17.8099C44.0385 15.6317 45.6084 14.3504 47.6583 14.3504C48.7796 14.3504 49.8045 14.9911 50.2525 15.6637V19.9561ZM55.2175 11.7879H58.2923V23.8322H55.2175V11.7879ZM101.151 11.4673C99.0368 11.4673 98.0435 12.7492 98.0435 12.7492V5.9906H94.9687V23.8322H97.5635C97.8199 23.8322 98.0115 23.6078 98.0115 23.3835V22.8392C98.0115 22.8392 99.0048 24.1525 101.118 24.1525C104.61 24.1525 107.333 21.4626 107.333 17.8108C107.333 14.1591 104.61 11.4673 101.151 11.4673ZM100.638 21.2373C99.4528 21.2373 98.5242 20.6293 98.0435 19.9241V15.6317C98.5242 14.9911 99.5491 14.3184 100.638 14.3184C102.688 14.3184 104.258 15.5997 104.258 17.7779C104.258 19.9561 102.689 21.2373 100.638 21.2373ZM93.3675 16.6893V23.8642H90.292V17.0413C90.292 15.0557 89.6514 14.2544 87.9228 14.2544C86.9942 14.2544 86.0329 14.7351 85.4233 15.44V23.8325H82.3491V11.7882H84.7827C85.039 11.7882 85.2313 12.0126 85.2313 12.2369V12.7495C86.1283 11.8202 87.3132 11.4676 88.4981 11.4676C89.8437 11.4676 90.965 11.8526 91.8619 12.6212C92.9505 13.5181 93.3675 14.6711 93.3675 16.6893ZM74.8846 11.4673C72.7711 11.4673 71.7778 12.7492 71.7778 12.7492V5.9906H68.703V23.8322H71.2972C71.5535 23.8322 71.7458 23.6078 71.7458 23.3835V22.8392C71.7458 22.8392 72.7391 24.1525 74.8526 24.1525C78.3444 24.1525 81.0669 21.4626 81.0669 17.8108C81.0989 14.1588 78.3764 11.4673 74.8846 11.4673ZM74.372 21.2373C73.1871 21.2373 72.2585 20.6293 71.7778 19.9241V15.6317C72.2585 14.9911 73.2834 14.3184 74.372 14.3184C76.4225 14.3184 77.9918 15.5997 77.9918 17.7779C77.9918 19.9561 76.4225 21.2373 74.372 21.2373ZM66.0442 11.4673C66.9728 11.4673 67.4534 11.6279 67.4534 11.6279V14.4784C67.4534 14.4784 64.8909 13.6135 63.2897 15.4397V23.8638H60.2142V11.7879H62.8091C63.0654 11.7879 63.257 12.0122 63.257 12.2366V12.7492C63.8343 12.0762 65.0836 11.4673 66.0442 11.4673ZM34.1091 22.7429C33.9491 22.3586 33.7888 21.9423 33.6288 21.5897C33.3722 21.0133 33.1159 20.4684 32.8922 19.9561L32.8602 19.9241C30.6497 15.1191 28.2798 10.2507 25.781 5.4463L25.685 5.25365C25.4222 4.75525 25.1661 4.25336 24.9167 3.74809C24.5961 3.17114 24.2761 2.56315 23.7634 1.9862C22.7385 0.704946 21.2649 0 19.6957 0C18.0938 0 16.6525 0.70495 15.5959 1.92189C15.1153 2.49819 14.7627 3.10683 14.4427 3.68377C14.1927 4.18872 13.9366 4.69061 13.6744 5.18934L13.578 5.38197C11.1115 10.1864 8.70934 15.0551 6.49914 19.8598L6.46683 19.9234C6.24283 20.4367 5.9862 20.981 5.72988 21.557C5.56988 21.9096 5.40989 22.294 5.24989 22.7103C4.83326 23.8952 4.70494 25.0165 4.86557 26.17C5.21789 28.5726 6.81913 30.5898 9.02965 31.4874C9.86259 31.84 10.7275 32 11.6242 32C11.8805 32 12.2005 31.968 12.4571 31.9357C13.5144 31.8077 14.6033 31.4557 15.6606 30.8471C16.9738 30.1101 18.2231 29.0535 19.6323 27.5159C21.0416 29.0535 22.3228 30.1101 23.6041 30.8471C24.6617 31.4557 25.7503 31.8077 26.8072 31.9357C27.0635 31.9683 27.3842 32 27.6405 32C28.5374 32 29.434 31.84 30.2347 31.4874C32.4772 30.5898 34.0464 28.5406 34.3991 26.17C34.6535 25.0491 34.5255 23.9285 34.1091 22.7429ZM19.6634 24.4085C17.9335 22.2303 16.8122 20.1804 16.4282 18.4512C16.2682 17.7142 16.2359 17.0736 16.3322 16.497C16.3959 15.9843 16.5885 15.5357 16.8449 15.1514C17.4535 14.2871 18.4784 13.7421 19.6637 13.7421C20.8493 13.7421 21.9062 14.2548 22.4828 15.1514C22.7391 15.5357 22.9311 15.9846 22.9958 16.497C23.0915 17.0739 23.0595 17.7462 22.8995 18.4512C22.5139 20.1484 21.3926 22.1986 19.6634 24.4085ZM32.4433 25.914C32.2193 27.5796 31.098 29.0215 29.5288 29.6621C28.7601 29.9821 27.9269 30.0784 27.0946 29.9821C26.2939 29.8858 25.4927 29.6295 24.6604 29.1495C23.5071 28.5082 22.3542 27.5159 21.0086 26.042C23.1225 23.4478 24.4037 21.077 24.8844 18.9635C25.1087 17.9702 25.141 17.0736 25.0444 16.2403C24.9167 15.4397 24.6281 14.7027 24.1797 14.0621C23.1862 12.6202 21.5203 11.7879 19.663 11.7879C17.8058 11.7879 16.1399 12.6529 15.147 14.0621C14.6987 14.7027 14.41 15.4397 14.282 16.2403C14.154 17.0736 14.1857 18.0022 14.442 18.9635C14.9223 21.077 16.2356 23.4795 18.3175 26.074C17.0042 27.5476 15.819 28.5409 14.6657 29.1815C13.8328 29.6621 13.0325 29.9184 12.2318 30.0141C11.3672 30.1104 10.5339 29.9821 9.79732 29.6941C8.22807 29.0535 7.10681 27.6116 6.88282 25.946C6.78682 25.1454 6.8505 24.3448 7.17113 23.4478C7.26681 23.1272 7.42744 22.8072 7.58744 22.4229C7.81176 21.9103 8.06743 21.3653 8.32407 20.821L8.35639 20.7573C10.5663 15.9843 12.9365 11.1156 15.403 6.37523L15.499 6.1826C15.7556 5.70261 16.0119 5.18998 16.2679 4.70935C16.5242 4.19672 16.8122 3.71609 17.1648 3.29945C17.8375 2.53147 18.7341 2.11452 19.7274 2.11452C20.7206 2.11452 21.6172 2.53147 22.2899 3.29945C22.6425 3.71705 22.9305 4.19768 23.1868 4.70935C23.4434 5.18998 23.6998 5.70261 23.9554 6.1826L24.0517 6.37523C26.4806 11.1353 28.8194 15.9409 31.0666 20.7893V20.8213C31.3233 21.3346 31.5473 21.9106 31.8036 22.4239C31.9636 22.8075 32.1239 23.1275 32.2199 23.4482C32.4756 24.2802 32.5716 25.0814 32.4433 25.914Z" fill="#191825" fill-opacity="0.5" shape-rendering="crispEdges"/>
</g>
<defs>
<filter id="filter0_d_832_978" x="0.798584" y="0" width="110.534" height="40" filterUnits="userSpaceOnUse" color-interpolation-filters="sRGB">
<feFlood flood-opacity="0" result="BackgroundImageFix"/>
<feColorMatrix in="SourceAlpha" type="matrix" values="0 0 0 0 0 0 0 0 0 0 0 0 0 0 0 0 0 0 127 0" result="hardAlpha"/>
<feOffset dy="4"/>
<feGaussianBlur stdDeviation="2"/>
<feComposite in2="hardAlpha" operator="out"/>
<feColorMatrix type="matrix" values="0 0 0 0 0 0 0 0 0 0 0 0 0 0 0 0 0 0 0.25 0"/>
<feBlend mode="normal" in2="BackgroundImageFix" result="effect1_dropShadow_832_978"/>
<feBlend mode="normal" in="SourceGraphic" in2="effect1_dropShadow_832_978" result="shape"/>
</filter>
</defs>
</svg>
