<svg width="114" height="32" viewBox="0 0 114 32" fill="none" xmlns="http://www.w3.org/2000/svg">
<path d="M55.2708 25.0368H51.7558C51.7336 25.0368 51.7336 25.0368 51.7225 25.0257L48.6969 21.3327L45.6714 25.0257C45.6602 25.0368 45.6491 25.0368 45.638 25.0368H42.8238C42.8015 25.0368 42.7904 25.0257 42.7793 25.0145C42.7793 25.0034 42.7793 24.9812 42.7904 24.97L47.2509 19.4973L42.846 14.0803C42.8349 14.058 42.8349 14.0469 42.8349 14.0247C42.846 14.0135 42.8572 14.0024 42.8683 14.0024H46.3833C46.3944 14.0024 46.4055 14.0135 46.4166 14.0247L49.0751 17.3172L51.7781 14.0247C51.7892 14.0135 51.8003 14.0024 51.8115 14.0024H54.6702C54.6813 14.0024 54.7035 14.0135 54.7147 14.0247C54.7258 14.0469 54.7147 14.058 54.7035 14.0803L50.5323 19.0969L55.3153 24.97C55.3264 24.9812 55.3264 25.0034 55.3264 25.0145C55.3042 25.0368 55.2931 25.0368 55.2708 25.0368Z" fill="#191825" fill-opacity="0.5"/>
<path d="M74.2806 15.9379C72.7233 15.9379 71.6666 16.8834 71.3552 18.5185H76.6499V18.4073C76.6499 17.1058 75.6822 15.9379 74.2806 15.9379ZM79.3751 20.2092C79.364 20.2204 79.3529 20.2315 79.3417 20.2315H71.2996C71.4664 22.1002 72.6788 23.1681 74.6477 23.1681C75.8601 23.1681 77.1504 22.7565 78.9635 21.7888C78.9969 21.7665 79.0303 21.7999 79.0303 21.8333V24.3026C79.0303 24.3249 79.0192 24.336 79.008 24.336C77.3173 25.0479 75.6154 25.5373 74.2806 25.5373C70.8213 25.5373 68.3074 23.0123 68.3074 19.5418C68.3074 16.0714 70.8213 13.5464 74.2806 13.5464C77.4396 13.5464 79.4641 15.6709 79.4641 18.5964C79.4641 19.0747 79.3862 20.1759 79.3751 20.2092Z" fill="#191825" fill-opacity="0.5"/>
<path d="M95.7039 11.711C94.714 11.711 93.9131 10.9212 93.9131 9.95352C93.9131 8.95242 94.714 8.14041 95.7039 8.14041C96.6939 8.14041 97.4948 8.95242 97.4948 9.95352C97.4948 10.9212 96.6939 11.711 95.7039 11.711ZM94.2579 25.0368C94.2245 25.0368 94.2134 25.0257 94.2134 24.9923V14.0358C94.2134 14.0135 94.2245 13.9913 94.2468 13.9913H97.15C97.1722 13.9913 97.1834 14.0135 97.1834 14.0358V24.9923C97.1834 25.0257 97.1611 25.0368 97.1389 25.0368H94.2579Z" fill="#191825" fill-opacity="0.5"/>
<path d="M60.5874 23.3905C60.0646 23.3905 59.5307 23.3127 58.9078 23.1569L58.9189 16.127C59.642 15.8934 60.2649 15.7933 60.8878 15.7933C62.9011 15.7933 64.247 17.2727 64.247 19.4862C64.247 21.8555 62.8121 23.3905 60.5874 23.3905ZM61.3772 13.5464C60.5541 13.5464 59.7309 13.691 58.8633 13.9913H55.9713C55.949 13.9913 55.9268 14.0135 55.9268 14.0358V32C56.7944 31.8776 57.8622 31.5662 58.9078 30.832V25.3705C59.6197 25.4706 60.2092 25.5373 60.7765 25.5373C64.7364 25.5373 67.2948 23.1681 67.2948 19.4973C67.2948 15.9935 64.8588 13.5464 61.3772 13.5464Z" fill="#191825" fill-opacity="0.5"/>
<path d="M88.9744 22.4784C88.0734 22.9567 87.2614 23.1792 86.505 23.1792C84.7142 23.1792 83.6352 21.9111 83.6352 19.7865C83.6352 17.3394 85.0034 15.7488 87.1279 15.7488C87.7175 15.7488 88.2848 15.8934 88.9744 16.2048V22.4784ZM88.9744 8.19601V13.9245C88.129 13.6798 87.3838 13.5686 86.6274 13.5686C83.1791 13.5686 80.5874 16.1603 80.5874 19.6086C80.5874 23.0346 82.8788 25.5262 86.0378 25.5262C87.1279 25.5262 88.1513 25.2481 89.3526 24.6363V25.6263C90.1424 25.4706 91.0545 25.1591 91.9555 24.514V7.01694C91.0767 7.13929 90.0311 7.43962 88.9744 8.19601Z" fill="#191825" fill-opacity="0.5"/>
<path d="M107.25 22.4562C106.372 22.9567 105.626 23.2014 104.959 23.2014C103.035 23.2014 101.889 21.9334 101.889 19.8088C101.889 17.395 103.246 15.771 105.259 15.771C105.793 15.771 106.449 15.9824 107.25 16.4051V22.4562ZM110.231 13.8578C110.231 13.7911 110.176 13.7355 110.109 13.7355H107.762C107.695 13.7355 107.628 13.7911 107.628 13.8578V14.2583H107.573C106.494 13.7799 105.56 13.5686 104.659 13.5686C101.411 13.5686 98.8633 16.2605 98.8633 19.7087C98.8633 23.1903 101.144 25.5262 104.536 25.5262C105.437 25.5262 106.605 25.4595 107.695 24.2136V25.6263C108.463 25.4595 109.375 25.1369 110.231 24.514V13.8578Z" fill="#191825" fill-opacity="0.5"/>
<path d="M34.7925 22.3004H42.0783C41.967 23.1124 41.689 24.069 41.0661 25.0368H33.4911C32.5678 25.0368 31.8003 24.3138 31.7113 23.4128C31.7113 23.4016 31.7002 23.3905 31.7002 23.3683V8.9969C31.7002 8.98578 31.7113 8.97466 31.7113 8.96353C31.8003 8.05142 32.5678 7.3284 33.4911 7.3284H42.0672C41.9559 8.1404 41.6778 9.11926 41.0438 10.087H34.7925V14.0024H40.9882C41.0104 14.0024 41.0327 14.0247 41.0327 14.0469V16.761C41.0327 16.7832 41.0104 16.8055 40.9882 16.8055H34.7925V22.3004Z" fill="#191825" fill-opacity="0.5"/>
<path d="M25.6716 25.2704C24.9486 25.2704 24.5037 24.7031 24.5037 24.0134C24.5037 23.2793 25.0154 22.7565 25.6716 22.7565C26.3168 22.7565 26.8285 23.2682 26.8285 24.0134C26.8285 24.7587 26.3168 25.2704 25.6716 25.2704ZM25.6716 22.623C24.9375 22.623 24.3035 23.1792 24.3035 24.0134C24.3035 24.8032 24.8708 25.4038 25.6716 25.4038C26.3947 25.4038 27.0287 24.8477 27.0287 24.0134C27.0287 23.1792 26.4058 22.623 25.6716 22.623Z" fill="#191825" fill-opacity="0.5"/>
<path d="M25.3486 23.9022V23.3905H25.6934C25.8714 23.3905 26.0716 23.4128 26.0716 23.6241C26.0716 23.8799 25.8825 23.8911 25.6712 23.8911C25.6601 23.9022 25.3486 23.9022 25.3486 23.9022ZM26.3163 23.6575C26.3163 23.3238 26.1161 23.1792 25.7157 23.1792H25.0928V24.8254H25.3597V24.1247H25.6156L26.0383 24.8254H26.3497L25.8937 24.1024C26.1384 24.0802 26.3163 23.9578 26.3163 23.6575Z" fill="#191825" fill-opacity="0.5"/>
<path d="M112.634 15.8155C111.911 15.8155 111.466 15.2482 111.466 14.5586C111.466 13.8244 111.978 13.3016 112.634 13.3016C113.279 13.3016 113.791 13.8133 113.791 14.5586C113.791 15.3038 113.279 15.8155 112.634 15.8155ZM112.634 13.1793C111.9 13.1793 111.266 13.7354 111.266 14.5697C111.266 15.3595 111.833 15.9601 112.634 15.9601C113.357 15.9601 113.991 15.4039 113.991 14.5697C113.991 13.7243 113.357 13.1793 112.634 13.1793Z" fill="#191825" fill-opacity="0.5"/>
<path d="M112.3 14.4473V13.9468H112.645C112.823 13.9468 113.023 13.969 113.023 14.1804C113.023 14.4362 112.834 14.4473 112.623 14.4473H112.3ZM113.279 14.2137C113.279 13.88 113.079 13.7354 112.678 13.7354H112.055V15.3817H112.322V14.6809H112.578L113.001 15.3817H113.312L112.856 14.6587C113.09 14.6364 113.279 14.5141 113.279 14.2137Z" fill="#191825" fill-opacity="0.5"/>
<path d="M16.2722 10.0759L15.7494 8.58534L11.2555 2.58985L12.0564 2.38963L19.7871 9.07476L24.3366 7.77333C24.8705 7.63985 25.4823 7.60648 25.9384 7.60648C24.5146 4.52531 21.8895 1.98919 18.4412 0.765622C11.6226 -1.67039 4.11434 1.9002 1.68945 8.72994C0.933065 10.8434 0.766215 13.0236 1.07767 15.0925L11.9674 11.3106L16.2722 10.0759Z" fill="#191825" fill-opacity="0.5"/>
<path d="M26.4278 8.78557C26.0274 9.04141 25.4379 9.38623 24.8595 9.57533L20.2989 10.8768L17.2622 20.6431L16.4724 20.8989L17.1176 13.4463L16.7617 11.9001L12.4903 13.1237L1.18896 15.7599C2.08996 20.098 5.16 23.8911 9.64271 25.4817C16.4724 27.9177 23.9696 24.3471 26.4056 17.5174C27.4512 14.592 27.3845 11.5219 26.4278 8.78557Z" fill="#191825" fill-opacity="0.5"/>
<path d="M16.7506 11.889L17.1065 13.4351L16.4614 20.8878L17.2511 20.6319L20.2878 10.8656L24.8484 9.56419C25.4268 9.3751 26.0163 9.0414 26.4168 8.77444C26.2722 8.374 26.1164 7.98468 25.9385 7.59536C25.4713 7.59536 24.8706 7.61761 24.3367 7.76221L19.7872 9.06364L12.0565 2.37851L11.2556 2.57873L15.7383 8.57422L16.2611 10.0647L11.9564 11.2994L1.06665 15.0814C1.10002 15.3038 1.14451 15.5374 1.18901 15.7599L12.4792 13.1014L16.7506 11.889Z" fill="white"/>
</svg>
