<svg width="177" height="40" viewBox="0 0 177 40" fill="none" xmlns="http://www.w3.org/2000/svg">
<g filter="url(#filter0_d_832_980)">
<path d="M104.241 31.1411L117.545 1.03265C117.756 0.575773 117.509 0.182856 116.997 0.182856H107.677C107.404 0.198354 107.14 0.286038 106.912 0.436946C106.684 0.587855 106.5 0.796578 106.379 1.04179L93.2394 31.1411C93.0476 31.6071 93.2943 31.9909 93.7968 31.9909H102.944C103.455 31.9909 104.04 31.6071 104.241 31.1411ZM151.949 23.036L172.6 0.191993H148.449L142.985 8.99151H152.46L131.471 32H157.029L166.55 23.036H151.949ZM63.5696 0.182856H47.5788C47.1048 0.210327 46.6464 0.362538 46.2501 0.624083C45.8537 0.885628 45.5335 1.24723 45.3219 1.67228L32.7394 30.5106C32.3739 31.3329 32.8216 32 33.7171 32H41.6394C42.5349 32 43.5583 31.3329 43.9055 30.5197L47.4966 22.3415H51.2156C52.3761 22.2684 52.8695 22.6979 52.2299 24.0411L49.4703 30.5106C49.1231 31.3329 49.5617 32 50.4572 32H58.3795C58.8554 31.975 59.3161 31.8239 59.7143 31.5622C60.1125 31.3005 60.4339 30.9375 60.6456 30.5106L64.2458 22.1862C65.3789 19.4815 63.7433 17.389 61.3675 17.2793C63.4691 16.5209 65.4063 14.4284 66.2744 12.5278L68.1385 8.14171C70.3863 3.04293 68.7872 0.118893 63.5696 0.191993M58.9095 9.28391L56.9357 13.6243C56.4789 14.666 55.821 14.7482 55.1631 14.7208H50.713L53.6919 7.95896H57.9592C59.0008 8.02292 59.2658 8.39756 58.9095 9.28391ZM94.6923 0.173718H77.7512C77.4119 0.1914 77.0834 0.298846 76.7992 0.485075C76.5151 0.671304 76.2855 0.92964 76.1339 1.23368L63.1676 30.9309C62.9209 31.5157 63.2224 31.9817 63.8621 31.9817H82.0002C87.7477 31.8995 91.0464 30.6293 93.6689 24.5437L95.533 20.4866C96.995 17.0143 95.5604 15.5066 92.8191 15.068C95.1035 14.3644 96.8214 12.2171 97.5615 10.3256L99.0784 7.10916C100.942 2.81449 99.3891 0.118893 94.6832 0.173718M86.3771 20.0937L85.2258 22.4055C84.6501 24.0137 83.645 24.4523 82.2286 24.4706H76.9288L79.4691 18.4855H84.7689C86.2674 18.5951 86.8523 18.9606 86.3771 20.0937ZM89.4199 9.43925L88.625 11.2668L88.5062 11.5043C88.3742 11.8856 88.1198 12.2124 87.7826 12.4339C87.4454 12.6554 87.0444 12.7591 86.6421 12.7288H82.0459L84.1475 7.88586H88.8351C89.6758 7.94068 89.8128 8.48894 89.4199 9.43925ZM120.479 0.182856L116.54 8.99151H122.16C122.544 8.99151 122.726 9.26563 122.571 9.622L112.748 31.3695C112.584 31.7167 112.776 32 113.159 32H123.165C123.549 32 123.987 31.7167 124.143 31.3604L133.573 9.622C133.663 9.43915 133.8 9.28358 133.971 9.17119C134.141 9.05881 134.338 8.99364 134.541 8.98237H140.307L145.735 0.182856H120.479ZM37.4635 11.0201L38.7062 8.30618C41.2099 2.58605 39.556 0.12803 34.64 0.191993H22.8068C17.9365 0.12803 13.8794 2.86931 11.6315 7.96809L7.97647 18.2936H4.52246L11.1289 27.2119L22.0484 18.2936H19.2706L22.4779 10.8464C22.9987 9.622 23.8942 9.03719 24.8536 8.99151H26.7177C27.1563 9.00978 27.4578 9.14684 27.6315 9.33873L33.4247 4.46839L37.4635 11.0201Z" fill="#191825" fill-opacity="0.5" shape-rendering="crispEdges"/>
</g>
<defs>
<filter id="filter0_d_832_980" x="0.522461" y="0.172897" width="176.077" height="39.8271" filterUnits="userSpaceOnUse" color-interpolation-filters="sRGB">
<feFlood flood-opacity="0" result="BackgroundImageFix"/>
<feColorMatrix in="SourceAlpha" type="matrix" values="0 0 0 0 0 0 0 0 0 0 0 0 0 0 0 0 0 0 127 0" result="hardAlpha"/>
<feOffset dy="4"/>
<feGaussianBlur stdDeviation="2"/>
<feComposite in2="hardAlpha" operator="out"/>
<feColorMatrix type="matrix" values="0 0 0 0 0 0 0 0 0 0 0 0 0 0 0 0 0 0 0.25 0"/>
<feBlend mode="normal" in2="BackgroundImageFix" result="effect1_dropShadow_832_980"/>
<feBlend mode="normal" in="SourceGraphic" in2="effect1_dropShadow_832_980" result="shape"/>
</filter>
</defs>
</svg>
